<svg width="42" height="46" viewBox="0 0 42 46" fill="none" xmlns="http://www.w3.org/2000/svg">
<path d="M15.8522 5.60799L17.1806 6.09163L19.293 10.6218L7.97 15.9018L13.9905 28.8129L24.4077 23.9553L25.6304 24.2124L27.7429 28.7426L11.8907 36.1347L10.5623 35.651L0 13L15.8522 5.60799Z" fill="#60A2FC"/>
<path d="M18.237 8.35661L4.64941 14.6926L13.0993 32.8134L26.6869 26.4774" stroke="#2875DF" stroke-width="5"/>
<path d="M25.1713 40.9723L23.8454 40.4873L21.7333 35.9571L33.959 30.2562L28.044 17.5713L16.7103 22.8563L15.607 22.8192L13.2833 17.836L29.1356 10.444L30.4639 10.9276L41.0259 33.5789L25.1713 40.9723Z" fill="#646D7F"/>
<path d="M24.1202 38.7161L37.7041 32.3721L29.2436 14.2562L15.6597 20.6002" stroke="#14213D" stroke-width="5"/>
</svg>
