<svg width="201" height="31" viewBox="0 0 201 31" fill="none" xmlns="http://www.w3.org/2000/svg">
<path d="M10.608 25.39C8.64933 25.39 6.92467 24.922 5.434 23.986C3.94333 23.05 2.79067 21.802 1.976 20.242C1.17867 18.6647 0.78 16.9487 0.78 15.094C0.78 13.222 1.248 11.506 2.184 9.946C3.13733 8.36867 4.394 7.12933 5.954 6.228C7.53133 5.30933 9.22133 4.85 11.024 4.85C12.376 4.85 13.6673 5.10133 14.898 5.604C16.1287 6.10667 17.2033 6.878 18.122 7.918C19.058 8.94067 19.7253 10.206 20.124 11.714L15.288 13.144C15.0107 12.416 14.4907 11.766 13.728 11.194C12.9827 10.6047 12.064 10.31 10.972 10.31C10.1747 10.31 9.412 10.5093 8.684 10.908C7.956 11.2893 7.36667 11.8527 6.916 12.598C6.46533 13.326 6.24 14.1667 6.24 15.12C6.24 15.9693 6.422 16.7667 6.786 17.512C7.16733 18.2573 7.696 18.8553 8.372 19.306C9.06533 19.7393 9.854 19.956 10.738 19.956C11.518 19.956 12.2287 19.8087 12.87 19.514C13.5113 19.2193 14.04 18.8467 14.456 18.396C14.872 17.9453 15.1493 17.5033 15.288 17.07L20.124 18.578C19.812 19.878 19.214 21.048 18.33 22.088C17.446 23.1107 16.3367 23.9167 15.002 24.506C13.6673 25.0953 12.2027 25.39 10.608 25.39ZM43.8805 24.87L38.3945 25.13L37.9005 17.278L34.9625 24.974L30.4905 25L27.3185 17.226L27.1885 25.026L21.7805 24.792L22.0925 5.214L27.9685 5.474L32.6485 16.238L37.1205 5.136L42.9965 5.266L43.8805 24.87ZM60.1581 25.468L59.0141 21.126L52.8001 20.84L51.1621 25.26L45.4421 24.506L53.9961 5.24L59.4041 5.292L65.7481 24.61L60.1581 25.468ZM54.7761 15.458L57.5841 15.692L56.3881 11.064L54.7761 15.458ZM74.0374 4.928C75.6148 4.928 77.0534 5.22267 78.3534 5.812C79.6708 6.384 80.7108 7.242 81.4734 8.386C82.2534 9.51267 82.6434 10.8733 82.6434 12.468C82.6434 13.8373 82.2708 15.1373 81.5254 16.368C80.7801 17.5987 79.7834 18.5867 78.5354 19.332C77.2874 20.0773 75.9528 20.45 74.5314 20.45C74.0288 20.45 73.5348 20.372 73.0494 20.216L73.1794 25H67.7194L67.3034 6.93C67.7541 6.42733 68.6988 5.968 70.1374 5.552C71.5761 5.136 72.8761 4.928 74.0374 4.928ZM74.2714 15.068C75.1208 15.068 75.8401 14.808 76.4294 14.288C77.0188 13.768 77.3134 13.1613 77.3134 12.468C77.3134 11.8093 77.0448 11.246 76.5074 10.778C75.9701 10.31 75.2768 10.076 74.4274 10.076C73.8728 10.076 73.3268 10.232 72.7894 10.544L72.8934 14.73C73.3788 14.9553 73.8381 15.068 74.2714 15.068ZM100.958 10.05L95.1336 10.18L95.1856 24.948L90.0376 25.182L89.9856 10.31L84.5776 10.44L84.2136 5.24L100.542 4.85L100.958 10.05Z" fill="#2875DF"/>
<path d="M115.142 21L115.076 8.614L110.28 8.526L110.522 21H105.902L105.682 4.016L119.674 4.236L119.784 21H115.142ZM127.235 4.016C128.57 4.016 129.787 4.26533 130.887 4.764C132.002 5.248 132.882 5.974 133.527 6.942C134.187 7.89533 134.517 9.04667 134.517 10.396C134.517 11.5547 134.202 12.6547 133.571 13.696C132.94 14.7373 132.097 15.5733 131.041 16.204C129.985 16.8347 128.856 17.15 127.653 17.15C127.228 17.15 126.81 17.084 126.399 16.952L126.509 21H121.889L121.537 5.71C121.918 5.28467 122.718 4.896 123.935 4.544C125.152 4.192 126.252 4.016 127.235 4.016ZM127.433 12.596C128.152 12.596 128.76 12.376 129.259 11.936C129.758 11.496 130.007 10.9827 130.007 10.396C130.007 9.83867 129.78 9.362 129.325 8.966C128.87 8.57 128.284 8.372 127.565 8.372C127.096 8.372 126.634 8.504 126.179 8.768L126.267 12.31C126.678 12.5007 127.066 12.596 127.433 12.596ZM146.868 4.28L151.664 4.126L151.466 21.132L146.34 20.978L146.582 13.19L140.444 21L140.422 20.956V21H136L135.89 4.192L140.884 4.28L140.664 12.156L146.868 4.28ZM160.68 9.956C161.736 9.956 162.689 10.1833 163.54 10.638C164.405 11.0927 165.08 11.7453 165.564 12.596C166.062 13.432 166.312 14.4147 166.312 15.544C166.312 17.4507 165.586 18.8953 164.134 19.878C162.682 20.846 160.548 21.33 157.732 21.33C156.5 21.33 155.062 21.2273 153.42 21.022L153.596 4.258L165.41 3.906L166.004 8.548L158.282 8.768L158.26 10.418C159.066 10.11 159.873 9.956 160.68 9.956ZM158.986 17.458C159.748 17.458 160.386 17.2673 160.9 16.886C161.428 16.5047 161.692 15.9987 161.692 15.368C161.692 14.84 161.508 14.422 161.142 14.114C160.79 13.7913 160.335 13.63 159.778 13.63C159.22 13.63 158.685 13.806 158.172 14.158L158.106 17.304C158.37 17.4067 158.663 17.458 158.986 17.458ZM176.486 21.352C174.932 21.352 173.472 20.9487 172.108 20.142C170.759 19.3207 169.674 18.2353 168.852 16.886C168.046 15.5367 167.642 14.1067 167.642 12.596C167.642 11.0707 168.046 9.648 168.852 8.328C169.674 6.99333 170.766 5.93733 172.13 5.16C173.494 4.368 174.961 3.972 176.53 3.972C178.085 3.972 179.53 4.368 180.864 5.16C182.199 5.93733 183.262 6.986 184.054 8.306C184.846 9.626 185.242 11.0487 185.242 12.574C185.242 14.1287 184.839 15.5807 184.032 16.93C183.24 18.2793 182.17 19.3573 180.82 20.164C179.471 20.956 178.026 21.352 176.486 21.352ZM176.376 16.798C177.124 16.798 177.828 16.6147 178.488 16.248C179.148 15.8813 179.676 15.3753 180.072 14.73C180.468 14.0847 180.666 13.366 180.666 12.574C180.666 11.8113 180.476 11.122 180.094 10.506C179.713 9.87533 179.2 9.384 178.554 9.032C177.909 8.68 177.198 8.504 176.42 8.504C175.643 8.504 174.932 8.68733 174.286 9.054C173.641 9.42067 173.135 9.91933 172.768 10.55C172.402 11.166 172.218 11.8553 172.218 12.618C172.218 13.3807 172.402 14.0847 172.768 14.73C173.15 15.3607 173.656 15.8667 174.286 16.248C174.917 16.6147 175.614 16.798 176.376 16.798ZM192.483 4.016C193.818 4.016 195.035 4.26533 196.135 4.764C197.25 5.248 198.13 5.974 198.775 6.942C199.435 7.89533 199.765 9.04667 199.765 10.396C199.765 11.5547 199.45 12.6547 198.819 13.696C198.188 14.7373 197.345 15.5733 196.289 16.204C195.233 16.8347 194.104 17.15 192.901 17.15C192.476 17.15 192.058 17.084 191.647 16.952L191.757 21H187.137L186.785 5.71C187.166 5.28467 187.966 4.896 189.183 4.544C190.4 4.192 191.5 4.016 192.483 4.016ZM192.681 12.596C193.4 12.596 194.008 12.376 194.507 11.936C195.006 11.496 195.255 10.9827 195.255 10.396C195.255 9.83867 195.028 9.362 194.573 8.966C194.118 8.57 193.532 8.372 192.813 8.372C192.344 8.372 191.882 8.504 191.427 8.768L191.515 12.31C191.926 12.5007 192.314 12.596 192.681 12.596Z" fill="#333C4F"/>
<path d="M105 24.5H199.5" stroke="#333C4F" stroke-width="3"/>
</svg>
