<svg width="231" height="23" viewBox="0 0 231 23" fill="none" xmlns="http://www.w3.org/2000/svg">
<path d="M11.424 22.42C9.31467 22.42 7.45733 21.916 5.852 20.908C4.24667 19.9 3.00533 18.556 2.128 16.876C1.26933 15.1773 0.84 13.3293 0.84 11.332C0.84 9.316 1.344 7.468 2.352 5.788C3.37867 4.08933 4.732 2.75467 6.412 1.784C8.11067 0.794665 9.93067 0.299999 11.872 0.299999C13.328 0.299999 14.7187 0.570666 16.044 1.112C17.3693 1.65333 18.5267 2.484 19.516 3.604C20.524 4.70533 21.2427 6.068 21.672 7.692L16.464 9.232C16.1653 8.448 15.6053 7.748 14.784 7.132C13.9813 6.49733 12.992 6.18 11.816 6.18C10.9573 6.18 10.136 6.39467 9.352 6.824C8.568 7.23467 7.93333 7.84133 7.448 8.644C6.96267 9.428 6.72 10.3333 6.72 11.36C6.72 12.2747 6.916 13.1333 7.308 13.936C7.71867 14.7387 8.288 15.3827 9.016 15.868C9.76267 16.3347 10.612 16.568 11.564 16.568C12.404 16.568 13.1693 16.4093 13.86 16.092C14.5507 15.7747 15.12 15.3733 15.568 14.888C16.016 14.4027 16.3147 13.9267 16.464 13.46L21.672 15.084C21.336 16.484 20.692 17.744 19.74 18.864C18.788 19.9653 17.5933 20.8333 16.156 21.468C14.7187 22.1027 13.1413 22.42 11.424 22.42ZM47.2559 21.86L41.3479 22.14L40.8159 13.684L37.6519 21.972L32.8359 22L29.4199 13.628L29.2799 22.028L23.4559 21.776L23.7919 0.691999L30.1199 0.971999L35.1599 12.564L39.9759 0.607998L46.3039 0.747998L47.2559 21.86ZM64.7857 22.504L63.5537 17.828L56.8617 17.52L55.0977 22.28L48.9377 21.468L58.1497 0.719999L63.9737 0.776L70.8057 21.58L64.7857 22.504ZM58.9897 11.724L62.0137 11.976L60.7257 6.992L58.9897 11.724ZM79.7326 0.384C81.4313 0.384 82.9806 0.701333 84.3806 1.336C85.7993 1.952 86.9193 2.876 87.7406 4.108C88.5806 5.32133 89.0006 6.78667 89.0006 8.504C89.0006 9.97867 88.5993 11.3787 87.7966 12.704C86.994 14.0293 85.9206 15.0933 84.5766 15.896C83.2326 16.6987 81.7953 17.1 80.2646 17.1C79.7233 17.1 79.1913 17.016 78.6686 16.848L78.8086 22H72.9286L72.4806 2.54C72.966 1.99867 73.9833 1.504 75.5326 1.056C77.082 0.607999 78.482 0.384 79.7326 0.384ZM79.9846 11.304C80.8993 11.304 81.674 11.024 82.3086 10.464C82.9433 9.904 83.2606 9.25067 83.2606 8.504C83.2606 7.79467 82.9713 7.188 82.3926 6.684C81.814 6.18 81.0673 5.928 80.1526 5.928C79.5553 5.928 78.9673 6.096 78.3886 6.432L78.5006 10.94C79.0233 11.1827 79.518 11.304 79.9846 11.304ZM108.724 5.9L102.452 6.04L102.508 21.944L96.9636 22.196L96.9076 6.18L91.0836 6.32L90.6916 0.719999L108.276 0.299999L108.724 5.9ZM122.474 22L122.39 6.236L116.286 6.124L116.594 22H110.714L110.434 0.384L128.242 0.663999L128.382 22H122.474ZM137.865 0.384C139.564 0.384 141.113 0.701333 142.513 1.336C143.932 1.952 145.052 2.876 145.873 4.108C146.713 5.32133 147.133 6.78667 147.133 8.504C147.133 9.97867 146.732 11.3787 145.929 12.704C145.127 14.0293 144.053 15.0933 142.709 15.896C141.365 16.6987 139.928 17.1 138.397 17.1C137.856 17.1 137.324 17.016 136.801 16.848L136.941 22H131.061L130.613 2.54C131.099 1.99867 132.116 1.504 133.665 1.056C135.215 0.607999 136.615 0.384 137.865 0.384ZM138.117 11.304C139.032 11.304 139.807 11.024 140.441 10.464C141.076 9.904 141.393 9.25067 141.393 8.504C141.393 7.79467 141.104 7.188 140.525 6.684C139.947 6.18 139.2 5.928 138.285 5.928C137.688 5.928 137.1 6.096 136.521 6.432L136.633 10.94C137.156 11.1827 137.651 11.304 138.117 11.304ZM162.852 0.719999L168.956 0.523999L168.704 22.168L162.18 21.972L162.488 12.06L154.676 22L154.648 21.944V22H149.02L148.88 0.607998L155.236 0.719999L154.956 10.744L162.852 0.719999ZM180.432 7.944C181.776 7.944 182.989 8.23333 184.072 8.812C185.173 9.39067 186.032 10.2213 186.648 11.304C187.282 12.368 187.6 13.6187 187.6 15.056C187.6 17.4827 186.676 19.3213 184.828 20.572C182.98 21.804 180.264 22.42 176.68 22.42C175.112 22.42 173.282 22.2893 171.192 22.028L171.416 0.691999L186.452 0.244L187.208 6.152L177.38 6.432L177.352 8.532C178.378 8.14 179.405 7.944 180.432 7.944ZM178.276 17.492C179.246 17.492 180.058 17.2493 180.712 16.764C181.384 16.2787 181.72 15.6347 181.72 14.832C181.72 14.16 181.486 13.628 181.02 13.236C180.572 12.8253 179.993 12.62 179.284 12.62C178.574 12.62 177.893 12.844 177.24 13.292L177.156 17.296C177.492 17.4267 177.865 17.492 178.276 17.492ZM200.549 22.448C198.57 22.448 196.713 21.9347 194.977 20.908C193.26 19.8627 191.878 18.4813 190.833 16.764C189.806 15.0467 189.293 13.2267 189.293 11.304C189.293 9.36267 189.806 7.552 190.833 5.872C191.878 4.17333 193.269 2.82933 195.005 1.84C196.741 0.831999 198.608 0.327999 200.605 0.327999C202.584 0.327999 204.422 0.831999 206.121 1.84C207.82 2.82933 209.173 4.164 210.181 5.844C211.189 7.524 211.693 9.33467 211.693 11.276C211.693 13.2547 211.18 15.1027 210.153 16.82C209.145 18.5373 207.782 19.9093 206.065 20.936C204.348 21.944 202.509 22.448 200.549 22.448ZM200.409 16.652C201.361 16.652 202.257 16.4187 203.097 15.952C203.937 15.4853 204.609 14.8413 205.113 14.02C205.617 13.1987 205.869 12.284 205.869 11.276C205.869 10.3053 205.626 9.428 205.141 8.644C204.656 7.84133 204.002 7.216 203.181 6.768C202.36 6.32 201.454 6.096 200.465 6.096C199.476 6.096 198.57 6.32933 197.749 6.796C196.928 7.26267 196.284 7.89733 195.817 8.7C195.35 9.484 195.117 10.3613 195.117 11.332C195.117 12.3027 195.35 13.1987 195.817 14.02C196.302 14.8227 196.946 15.4667 197.749 15.952C198.552 16.4187 199.438 16.652 200.409 16.652ZM220.908 0.384C222.607 0.384 224.156 0.701333 225.556 1.336C226.975 1.952 228.095 2.876 228.916 4.108C229.756 5.32133 230.176 6.78667 230.176 8.504C230.176 9.97867 229.775 11.3787 228.972 12.704C228.17 14.0293 227.096 15.0933 225.752 15.896C224.408 16.6987 222.971 17.1 221.44 17.1C220.899 17.1 220.367 17.016 219.844 16.848L219.984 22H214.104L213.656 2.54C214.142 1.99867 215.159 1.504 216.708 1.056C218.258 0.607999 219.658 0.384 220.908 0.384ZM221.16 11.304C222.075 11.304 222.85 11.024 223.484 10.464C224.119 9.904 224.436 9.25067 224.436 8.504C224.436 7.79467 224.147 7.188 223.568 6.684C222.99 6.18 222.243 5.928 221.328 5.928C220.731 5.928 220.143 6.096 219.564 6.432L219.676 10.94C220.199 11.1827 220.694 11.304 221.16 11.304Z" fill="#2875DF"/>
</svg>
