<svg width="210" height="31" viewBox="0 0 210 31" fill="none" xmlns="http://www.w3.org/2000/svg">
<path d="M10.608 25.39C8.64933 25.39 6.92467 24.922 5.434 23.986C3.94333 23.05 2.79067 21.802 1.976 20.242C1.17867 18.6647 0.78 16.9487 0.78 15.094C0.78 13.222 1.248 11.506 2.184 9.946C3.13733 8.36867 4.394 7.12933 5.954 6.228C7.53133 5.30933 9.22133 4.85 11.024 4.85C12.376 4.85 13.6673 5.10133 14.898 5.604C16.1287 6.10667 17.2033 6.878 18.122 7.918C19.058 8.94067 19.7253 10.206 20.124 11.714L15.288 13.144C15.0107 12.416 14.4907 11.766 13.728 11.194C12.9827 10.6047 12.064 10.31 10.972 10.31C10.1747 10.31 9.412 10.5093 8.684 10.908C7.956 11.2893 7.36667 11.8527 6.916 12.598C6.46533 13.326 6.24 14.1667 6.24 15.12C6.24 15.9693 6.422 16.7667 6.786 17.512C7.16733 18.2573 7.696 18.8553 8.372 19.306C9.06533 19.7393 9.854 19.956 10.738 19.956C11.518 19.956 12.2287 19.8087 12.87 19.514C13.5113 19.2193 14.04 18.8467 14.456 18.396C14.872 17.9453 15.1493 17.5033 15.288 17.07L20.124 18.578C19.812 19.878 19.214 21.048 18.33 22.088C17.446 23.1107 16.3367 23.9167 15.002 24.506C13.6673 25.0953 12.2027 25.39 10.608 25.39ZM43.8805 24.87L38.3945 25.13L37.9005 17.278L34.9625 24.974L30.4905 25L27.3185 17.226L27.1885 25.026L21.7805 24.792L22.0925 5.214L27.9685 5.474L32.6485 16.238L37.1205 5.136L42.9965 5.266L43.8805 24.87ZM60.1581 25.468L59.0141 21.126L52.8001 20.84L51.1621 25.26L45.4421 24.506L53.9961 5.24L59.4041 5.292L65.7481 24.61L60.1581 25.468ZM54.7761 15.458L57.5841 15.692L56.3881 11.064L54.7761 15.458ZM74.0374 4.928C75.6148 4.928 77.0534 5.22267 78.3534 5.812C79.6708 6.384 80.7108 7.242 81.4734 8.386C82.2534 9.51267 82.6434 10.8733 82.6434 12.468C82.6434 13.8373 82.2708 15.1373 81.5254 16.368C80.7801 17.5987 79.7834 18.5867 78.5354 19.332C77.2874 20.0773 75.9528 20.45 74.5314 20.45C74.0288 20.45 73.5348 20.372 73.0494 20.216L73.1794 25H67.7194L67.3034 6.93C67.7541 6.42733 68.6988 5.968 70.1374 5.552C71.5761 5.136 72.8761 4.928 74.0374 4.928ZM74.2714 15.068C75.1208 15.068 75.8401 14.808 76.4294 14.288C77.0188 13.768 77.3134 13.1613 77.3134 12.468C77.3134 11.8093 77.0448 11.246 76.5074 10.778C75.9701 10.31 75.2768 10.076 74.4274 10.076C73.8728 10.076 73.3268 10.232 72.7894 10.544L72.8934 14.73C73.3788 14.9553 73.8381 15.068 74.2714 15.068ZM100.958 10.05L95.1336 10.18L95.1856 24.948L90.0376 25.182L89.9856 10.31L84.5776 10.44L84.2136 5.24L100.542 4.85L100.958 10.05Z" fill="#2875DF"/>
<path d="M116.064 23L115.992 9.488L110.76 9.392L111.024 23H105.984L105.744 4.472L121.008 4.712L121.128 23H116.064ZM129.256 4.472C130.712 4.472 132.04 4.744 133.24 5.288C134.456 5.816 135.416 6.608 136.12 7.664C136.84 8.704 137.2 9.96 137.2 11.432C137.2 12.696 136.856 13.896 136.168 15.032C135.48 16.168 134.56 17.08 133.408 17.768C132.256 18.456 131.024 18.8 129.712 18.8C129.248 18.8 128.792 18.728 128.344 18.584L128.464 23H123.424L123.04 6.32C123.456 5.856 124.328 5.432 125.656 5.048C126.984 4.664 128.184 4.472 129.256 4.472ZM129.472 13.832C130.256 13.832 130.92 13.592 131.464 13.112C132.008 12.632 132.28 12.072 132.28 11.432C132.28 10.824 132.032 10.304 131.536 9.872C131.04 9.44 130.4 9.224 129.616 9.224C129.104 9.224 128.6 9.368 128.104 9.656L128.2 13.52C128.648 13.728 129.072 13.832 129.472 13.832ZM150.674 4.76L155.906 4.592L155.69 23.144L150.098 22.976L150.362 14.48L143.666 23L143.642 22.952V23H138.818L138.698 4.664L144.146 4.76L143.906 13.352L150.674 4.76ZM165.742 10.952C166.894 10.952 167.934 11.2 168.862 11.696C169.806 12.192 170.542 12.904 171.07 13.832C171.614 14.744 171.886 15.816 171.886 17.048C171.886 19.128 171.094 20.704 169.51 21.776C167.926 22.832 165.598 23.36 162.526 23.36C161.182 23.36 159.614 23.248 157.822 23.024L158.014 4.736L170.902 4.352L171.55 9.416L163.126 9.656L163.102 11.456C163.982 11.12 164.862 10.952 165.742 10.952ZM163.894 19.136C164.726 19.136 165.422 18.928 165.982 18.512C166.558 18.096 166.846 17.544 166.846 16.856C166.846 16.28 166.646 15.824 166.246 15.488C165.862 15.136 165.366 14.96 164.758 14.96C164.15 14.96 163.566 15.152 163.006 15.536L162.934 18.968C163.222 19.08 163.542 19.136 163.894 19.136ZM182.985 23.384C181.289 23.384 179.697 22.944 178.209 22.064C176.737 21.168 175.553 19.984 174.657 18.512C173.777 17.04 173.337 15.48 173.337 13.832C173.337 12.168 173.777 10.616 174.657 9.176C175.553 7.72 176.745 6.568 178.233 5.72C179.721 4.856 181.321 4.424 183.033 4.424C184.729 4.424 186.305 4.856 187.761 5.72C189.217 6.568 190.377 7.712 191.241 9.152C192.105 10.592 192.537 12.144 192.537 13.808C192.537 15.504 192.097 17.088 191.217 18.56C190.353 20.032 189.185 21.208 187.713 22.088C186.241 22.952 184.665 23.384 182.985 23.384ZM182.865 18.416C183.681 18.416 184.449 18.216 185.169 17.816C185.889 17.416 186.465 16.864 186.897 16.16C187.329 15.456 187.545 14.672 187.545 13.808C187.545 12.976 187.337 12.224 186.921 11.552C186.505 10.864 185.945 10.328 185.241 9.944C184.537 9.56 183.761 9.368 182.913 9.368C182.065 9.368 181.289 9.568 180.585 9.968C179.881 10.368 179.329 10.912 178.929 11.6C178.529 12.272 178.329 13.024 178.329 13.856C178.329 14.688 178.529 15.456 178.929 16.16C179.345 16.848 179.897 17.4 180.585 17.816C181.273 18.216 182.033 18.416 182.865 18.416ZM200.436 4.472C201.892 4.472 203.22 4.744 204.42 5.288C205.636 5.816 206.596 6.608 207.3 7.664C208.02 8.704 208.38 9.96 208.38 11.432C208.38 12.696 208.036 13.896 207.348 15.032C206.66 16.168 205.74 17.08 204.588 17.768C203.436 18.456 202.204 18.8 200.892 18.8C200.428 18.8 199.972 18.728 199.524 18.584L199.644 23H194.604L194.22 6.32C194.636 5.856 195.508 5.432 196.836 5.048C198.164 4.664 199.364 4.472 200.436 4.472ZM200.652 13.832C201.436 13.832 202.1 13.592 202.644 13.112C203.188 12.632 203.46 12.072 203.46 11.432C203.46 10.824 203.212 10.304 202.716 9.872C202.22 9.44 201.58 9.224 200.796 9.224C200.284 9.224 199.78 9.368 199.284 9.656L199.38 13.52C199.828 13.728 200.252 13.832 200.652 13.832Z" fill="#333C4F"/>
<path d="M105 26.5H208" stroke="#333C4F" stroke-width="2"/>
</svg>
