<svg width="40" height="31" viewBox="0 0 40 31" fill="none" xmlns="http://www.w3.org/2000/svg">
<path d="M39.8967 4.64301C39.7164 3.77514 39.3137 2.98093 38.7513 2.32484C38.6327 2.18188 38.5087 2.05386 38.3745 1.92583C37.378 0.968971 35.9794 0.37207 34.4515 0.37207H5.54852C4.02063 0.37207 2.62703 0.968971 1.62586 1.92583C1.49188 2.05386 1.36797 2.18188 1.24906 2.32484C0.686328 2.98086 0.283594 3.77514 0.108281 4.64301C0.03625 4.97797 0 5.32412 0 5.67408V25.0706C0 25.8147 0.165156 26.53 0.459687 27.1759C0.732891 27.7925 1.1357 28.3505 1.62578 28.8183C1.75 28.9367 1.87336 29.0455 2.00797 29.1538C2.96781 29.9133 4.2068 30.3721 5.54852 30.3721H34.4515C35.7937 30.3721 37.038 29.9133 37.9923 29.149C38.1266 29.0455 38.2505 28.9367 38.3745 28.8183C38.8643 28.3505 39.267 27.7925 39.5459 27.1759V27.1712C39.8403 26.5252 39.9999 25.8147 39.9999 25.0707V5.67408C40 5.32412 39.9643 4.97797 39.8967 4.64301ZM3.63352 3.84396C4.12922 3.37083 4.79492 3.0844 5.54852 3.0844H34.4515C35.2051 3.0844 35.8766 3.37083 36.3665 3.84396C36.4541 3.92824 36.5367 4.02215 36.6096 4.11546L21.4606 16.7309C21.0428 17.0808 20.5267 17.2536 20 17.2536C19.4786 17.2536 18.9628 17.0808 18.5395 16.7309L3.39625 4.11009C3.46328 4.01678 3.54586 3.92824 3.63352 3.84396ZM2.83859 25.0706V6.91685L13.8014 16.0551L2.84414 25.1837C2.83859 25.149 2.83859 25.1101 2.83859 25.0706ZM34.4515 27.6592H5.54852C5.05781 27.6592 4.59867 27.536 4.2068 27.3194L15.7676 17.6926L16.8469 18.5898C17.7501 19.3397 18.8803 19.7195 20 19.7195C21.1255 19.7195 22.2556 19.3397 23.1588 18.5898L24.2375 17.6926L35.7938 27.3194C35.4013 27.536 34.9422 27.6592 34.4515 27.6592ZM37.1614 25.0706C37.1614 25.1101 37.1614 25.149 37.1561 25.1837L26.1989 16.0604L37.1614 6.9217V25.0706Z" fill="white"/>
</svg>
